<?xml version="1.0" encoding="UTF-8"?>
<svg width="24px" height="24px" viewBox="0 0 24 24" version="1.1" xmlns="http://www.w3.org/2000/svg" xmlns:xlink="http://www.w3.org/1999/xlink">
    <!-- Generator: Sketch 48.2 (47327) - http://www.bohemiancoding.com/sketch -->
    <title>linkedin</title>
    <desc>Created with Sketch.</desc>
    <defs></defs>
    <g id="Page-1" stroke="none" stroke-width="1" fill="none" fill-rule="evenodd">
        <g id="linkedin">
            <circle id="Oval" fill="#CBCBCB" cx="12" cy="12" r="12"></circle>
            <path d="M8.34231132,9.56814484 L5.18195979,9.56814484 L5.18195979,19.0587762 L8.34231132,19.0587762 L8.34231132,9.56814484 Z M8.54342465,6.63763696 C8.53384788,5.70868504 7.86346992,5 6.78128909,5 C5.70868504,5 5,5.70868504 5,6.63763696 C5,7.54743476 5.67995416,8.27527335 6.74298201,8.27527335 L6.76213555,8.27527335 C7.86346992,8.27527335 8.55300142,7.54743476 8.54342465,6.63763696 Z M19.71,13.6191406 C19.71,10.7077863 18.1585552,9.3478774 16.0803845,9.3478774 C14.3757095,9.3478774 13.6287174,10.2959834 13.216914,10.9472073 L13.2360681,10.9472073 L13.2360681,9.56814484 L10.0852933,9.56814484 C10.0852933,9.56814484 10.1236004,10.4587891 10.0852933,19.0587762 L13.2360681,19.0587762 L13.2360681,13.7627933 C13.2360681,13.4754885 13.2647984,13.1977604 13.3414131,12.9870703 C13.5712568,12.422038 14.0884053,11.8378515 14.959896,11.8378515 C16.099538,11.8378515 16.5592253,12.7093428 16.5592253,13.9830602 L16.5592253,19.0587762 L19.71,19.0587762 L19.71,13.6191406 Z" id="Shape" fill="#FFFFFF" fill-rule="nonzero"></path>
        </g>
    </g>
</svg>